<?xml version="1.0"?>
<svg xmlns="http://www.w3.org/2000/svg" viewBox="0.0000 0.0000 339.5625 149.0625" width="339.5625mm" height="149.0625mm">
<polygon points="34.0500,5.0000 5.0000,5.0000 5.0000,144.0625 334.5625,144.0625 334.5625,5.0000 305.5125,5.0000 305.5125,12.5000 327.0625,12.5000 327.0625,136.5625 319.9188,136.5625 319.9188,138.9438 262.5312,138.9438 262.5312,136.5625 12.5000,136.5625 12.5000,12.5000 34.0500,12.5000" style="fill:none;stroke-width:0.050000mm;stroke:black"/>
<rect x="53.1000" y="5.0000" width="233.3625" height="7.5000" style="fill:none;stroke-width:0.050000mm;stroke:black"/>
<circle cx="9.0000" cy="9.0000" r="1.7500" style="fill:none;stroke-width:0.050000mm;stroke:black"/>
<circle cx="116.1875" cy="9.0000" r="1.7500" style="fill:none;stroke-width:0.050000mm;stroke:black"/>
<circle cx="223.3750" cy="9.0000" r="1.7500" style="fill:none;stroke-width:0.050000mm;stroke:black"/>
<circle cx="330.5625" cy="9.0000" r="1.7500" style="fill:none;stroke-width:0.050000mm;stroke:black"/>
<circle cx="9.0000" cy="74.5313" r="1.7500" style="fill:none;stroke-width:0.050000mm;stroke:black"/>
<circle cx="330.5625" cy="74.5313" r="1.7500" style="fill:none;stroke-width:0.050000mm;stroke:black"/>
<circle cx="9.0000" cy="140.0625" r="1.7500" style="fill:none;stroke-width:0.050000mm;stroke:black"/>
<circle cx="116.1875" cy="140.0625" r="1.7500" style="fill:none;stroke-width:0.050000mm;stroke:black"/>
<circle cx="223.3750" cy="140.0625" r="1.7500" style="fill:none;stroke-width:0.050000mm;stroke:black"/>
<circle cx="330.5625" cy="140.0625" r="1.7500" style="fill:none;stroke-width:0.050000mm;stroke:black"/>
</svg>